<svg version="1.1" id="Layer_1" xmlns="http://www.w3.org/2000/svg" xmlns:xlink="http://www.w3.org/1999/xlink" x="0px" y="0px"
	 width="477px" height="476.225px" viewBox="194.445 0 477 476.225" enable-background="new 194.445 0 477 476.225"
	 xml:space="preserve">
<path fill="#FFFFFF" d="M599.623,0H266.266c-14.286,0-23.811,9.524-23.811,23.812v42.86c0,2.381,2.381,4.762,4.762,4.762h42.86
	c14.287,0,23.812,9.524,23.812,23.812s-9.524,23.812-23.812,23.812h-42.86c-2.381,0-4.762,2.381-4.762,4.762v85.721
	c0,2.381,2.381,4.762,4.762,4.762h42.86c14.287,0,23.812,9.524,23.812,23.812s-9.524,23.812-23.812,23.812h-42.86
	c-2.381,0-4.762,2.381-4.762,4.762v85.721c0,2.381,2.381,4.763,4.762,4.763h42.86c14.287,0,23.812,9.524,23.812,23.811
	c0,14.287-9.524,23.812-23.812,23.812h-42.86c-2.381,0-4.762,2.381-4.762,4.763v42.859c0,14.287,9.524,23.812,23.811,23.812h333.357
	c14.286,0,23.811-9.524,23.811-23.812V23.811C623.434,9.524,613.909,0,599.623,0z M456.756,142.867
	c26.192,0,47.622,21.431,47.622,47.623s-21.43,47.622-47.622,47.622s-47.623-21.43-47.623-47.622S430.564,142.867,456.756,142.867z
	 M542.476,357.169h-171.44c-4.762,0-9.524-4.763-9.524-9.524c4.763-47.623,45.241-85.721,95.245-85.721
	c50.003,0,90.482,38.098,95.244,85.721C552,352.406,547.239,357.169,542.476,357.169z"/>
</svg>
