<svg version="1.1" id="Layer_1" xmlns="http://www.w3.org/2000/svg" xmlns:xlink="http://www.w3.org/1999/xlink" x="0px" y="0px"
	 width="418px" height="419.078px" viewBox="210.445 28.573 418 419.078" enable-background="new 210.445 28.573 418 419.078"
	 xml:space="preserve">
<g transform="translate(0,-952.36218)">
	<path fill="#FFFFFF" d="M278.077,980.936c-8.038,0.057-14.237,8.051-14.286,14.286v390.505c0.001,7.479,6.807,14.285,14.286,14.286
		h285.734c7.48-0.001,14.286-6.807,14.287-14.286v-304.784c0-3.744-1.524-7.469-4.167-10.12l-85.721-85.721
		c-2.652-2.643-6.376-4.176-10.12-4.167L278.077,980.936L278.077,980.936z M292.365,1009.509h171.44v71.434
		c0.001,7.48,6.807,14.286,14.286,14.286h71.435v276.211H292.365V1009.509L292.365,1009.509z M492.378,1029.6l37.057,37.056h-37.057
		V1029.6z M325.699,1142.852c-7.89,0-14.286,6.396-14.286,14.286s6.396,14.287,14.286,14.287h152.392
		c7.891,0,14.287-6.396,14.287-14.287s-6.396-14.286-14.287-14.286H325.699z M325.699,1219.048c-7.89,0-14.286,6.396-14.286,14.286
		s6.396,14.287,14.286,14.287h190.49c7.891,0,14.286-6.396,14.286-14.287s-6.396-14.286-14.286-14.286H325.699z M325.699,1295.245
		c-7.89,0-14.286,6.396-14.286,14.287c0,7.89,6.396,14.286,14.286,14.286h190.49c7.891,0,14.286-6.396,14.286-14.286
		c0-7.891-6.396-14.287-14.286-14.287H325.699z"/>
</g>
</svg>
