<?xml version="1.0" encoding="utf-8"?>
<!-- Generator: Adobe Illustrator 16.0.0, SVG Export Plug-In . SVG Version: 6.00 Build 0)  -->
<!DOCTYPE svg PUBLIC "-//W3C//DTD SVG 1.1//EN" "http://www.w3.org/Graphics/SVG/1.1/DTD/svg11.dtd">
<svg version="1.1" id="Layer_1" xmlns="http://www.w3.org/2000/svg" xmlns:xlink="http://www.w3.org/1999/xlink" x="0px" y="0px"
	 width="391.1px" height="454.794px" viewBox="102.388 128.067 391.1 454.794"
	 enable-background="new 102.388 128.067 391.1 454.794" xml:space="preserve">
<g>
	<path d="M144.058,582.861h307.76c23.216,0,41.67-18.454,41.67-41.67V293.555c0-23.216-18.454-41.67-41.67-41.67h-76.791v35.717
		h76.195c3.572,0,5.953,2.381,5.953,5.953v248.232c0,3.571-2.381,5.953-5.953,5.953H144.058c-3.571,0-5.953-2.382-5.953-5.953
		V293.555c0-3.572,2.382-5.953,5.953-5.953h76.196v-35.717h-76.196c-23.216,0-41.67,18.454-41.67,41.67v248.232
		C102.388,564.407,120.842,582.861,144.058,582.861z"/>
	<path d="M206.562,340.582l-23.216,27.383l99.412,85.72c3.571,2.977,7.738,4.167,11.905,4.167s8.334-1.19,11.905-4.167
		l100.008-85.72l-23.812-27.383l-70.243,60.123V128.067h-35.717v272.638L206.562,340.582z"/>
</g>
</svg>
