<svg version="1.1" id="Layer_1" xmlns="http://www.w3.org/2000/svg" xmlns:xlink="http://www.w3.org/1999/xlink" x="0px" y="0px"
	 width="428.6px" height="428.6px" viewBox="206.645 23.81 428.6 428.6" enable-background="new 206.645 23.81 428.6 428.6"
	 xml:space="preserve">
<g>
	<path fill="#FFFFFF" d="M370.994,151.92c-2.85-1.43-7.62-2.39-13.33-2.39h-31.91v37.15h31.431c6.189,0,10.96-0.95,13.81-2.38
		c5.72-2.86,8.101-8.1,8.101-15.72C378.615,160.49,376.235,154.77,370.994,151.92z"/>
	<path fill="#FFFFFF" d="M582.865,23.81h-323.84c-29.05,0-52.38,21.91-52.38,49.05V319.07c0,27.15,23.33,49.051,52.38,49.051h34.29
		v72.859c0,4.29,2.86,8.58,7.15,10.48c1.9,0.949,3.33,0.949,5.23,0.949c2.86,0,5.72-0.949,8.1-2.38l108.1-81.909h160.97
		c29.05,0,52.38-21.9,52.38-49.051V72.861C635.244,45.72,611.914,23.81,582.865,23.81z M409.574,264.301h-31.43
		c-0.95-2.85-1.431-5.71-1.91-7.62c-0.95-3.81-0.95-8.09-1.43-11.9v-12.86c0-9.05-1.431-14.76-4.761-17.62
		c-2.859-2.86-8.569-4.28-16.67-4.28h-28.569v54.28h-28.57V125.25h66.67c9.521,0,16.67,1.43,21.9,3.81
		c5.239,2.38,9.529,5.24,12.859,9.52c2.86,3.33,5.24,7.62,7.15,11.91c1.899,4.28,2.38,9.04,2.38,14.76c0,6.67-1.91,13.33-4.77,19.52
		c-3.33,6.2-9.04,10.96-16.66,13.34c6.189,2.38,10.949,6.19,13.81,10.95c2.851,4.76,3.811,11.91,3.811,21.91v9.52
		c0,6.19,0.47,10.48,0.949,12.86c0.95,3.81,2.38,6.19,5.24,8.1V264.301z M548.634,264.301h-29.049v-61.91h-53.811v61.91h-29.051
		V125.25h29.051v52.86h53.811v-52.86h29.049V264.301z"/>
</g>
</svg>
