<svg version="1.1" id="Layer_1" xmlns="http://www.w3.org/2000/svg" xmlns:xlink="http://www.w3.org/1999/xlink" x="0px" y="0px"
	 width="380.979px" height="376px" viewBox="230.455 44.14 380.979 376" enable-background="new 230.455 44.14 380.979 376"
	 xml:space="preserve">
<g transform="translate(0,-952.36218)">
	<path fill="#FFFFFF" d="M339.987,1028.558c-2.638,0-4.762,2.355-4.762,5.357v51.789h66.671v-51.789
		c0-3.002-2.124-5.357-4.763-5.357H339.987z M549.526,1028.558c-2.639,0-4.763,2.355-4.763,5.357v51.789h66.671v-51.789
		c0-3.002-2.123-5.357-4.762-5.357H549.526z M235.217,1066.656c-2.638,0-4.762,2.124-4.762,4.763v42.86h66.671v-42.86
		c0-2.639-2.124-4.763-4.762-4.763H235.217z M444.756,1095.229c-2.639,0-4.763,2.009-4.763,4.465v43.158h66.672v-43.158
		c0-2.456-2.124-4.465-4.763-4.465H444.756z M335.225,1104.755v171.44h66.671v-171.44H335.225z M544.763,1104.755v171.44h66.671
		v-171.44H544.763z M230.455,1133.328v152.392h66.671v-152.392H230.455z M439.993,1161.901v123.818h66.672v-123.818H439.993z
		 M335.225,1295.244v51.79c0,3.002,2.124,5.357,4.762,5.357h57.146c2.639,0,4.763-2.355,4.763-5.357v-51.79H335.225z
		 M544.763,1295.244v51.79c0,3.002,2.124,5.357,4.763,5.357h57.146c2.639,0,4.762-2.355,4.762-5.357v-51.79H544.763z
		 M230.455,1304.768v42.86c0,2.638,2.124,4.763,4.762,4.763h57.147c2.638,0,4.762-2.125,4.762-4.763v-42.86H230.455z
		 M439.993,1304.768v43.158c0,2.456,2.124,4.465,4.763,4.465h57.146c2.639,0,4.763-2.009,4.763-4.465v-43.158H439.993z"/>
</g>
</svg>
