<svg version="1.1" id="Layer_1" xmlns="http://www.w3.org/2000/svg" xmlns:xlink="http://www.w3.org/1999/xlink" x="0px" y="0px"
	 width="476.215px" height="476.314px" viewBox="182.832 0.007 476.215 476.314"
	 enable-background="new 182.832 0.007 476.215 476.314" xml:space="preserve">
<path fill="#FFFFFF" d="M182.832,92.147c0.819-4.186,1.535-8.371,2.475-12.557c10.269-45.353,50.636-78.316,97.421-79.367
	c13.395-0.307,26.797-0.27,40.191,0c22.425,0.381,40.144,18.035,40.441,39.995c0.438,22.286-17.165,40.761-39.446,41.4
	c-11.896,0.428-23.812,0.064-35.727,0.148c-15.561,0.111-23.82,8.464-23.829,24.034c0,88.052,0,176.132,0,264.24
	c0,15.867,8.296,24.183,24.08,24.285c12.399,0.065,24.835-0.372,37.205,0.316c29.039,1.618,46.888,33.922,32.982,59.528
	c-6.911,12.715-17.672,21.039-32.331,21.597c-17.812,0.67-35.81,1.023-53.51-0.697c-45.009-4.428-82.679-41.744-88.901-86.502
	c-0.224-1.637-0.698-3.199-1.052-4.79C182.832,286.568,182.832,189.358,182.832,92.147z"/>
<path fill="#FFFFFF" d="M519.128,204.34c-1.943-2.13-3.069-3.441-4.278-4.651c-17.235-17.384-34.563-34.684-51.678-52.18
	c-13.812-14.129-15.515-35.782-4.362-51.38c11.841-16.565,33.187-22.49,51.036-13.72c4.421,2.229,8.453,5.157,11.942,8.669
	c41.583,41.434,83.076,82.958,124.479,124.571c17.067,17.143,17.039,41.698-0.084,58.868
	c-40.517,40.628-81.095,81.2-121.735,121.717c-16.928,16.872-42.144,16.983-58.653,0.548c-16.119-16.054-15.737-41.214,1.061-58.17
	c15.942-16.122,31.972-32.133,48.087-48.031c1.259-1.072,2.603-2.039,4.019-2.893l-0.763-1.796h-5.432
	c-55.585,0-111.169,0-166.753,0c-19.784,0-36.693-12.892-41.027-31.01c-6.251-26.1,12.854-50.329,40.079-50.45
	c35.893-0.168,71.796,0,107.698,0h66.365L519.128,204.34z"/>
</svg>
