<svg version="1.1" id="Layer_1" xmlns="http://www.w3.org/2000/svg" xmlns:xlink="http://www.w3.org/1999/xlink" x="0px" y="0px"
	 width="327.404px" height="327.404px" viewBox="257.242 74.41 327.404 327.404"
	 enable-background="new 257.242 74.41 327.404 327.404" xml:space="preserve">
<g>
	<g>
		<path fill="#E97E06" d="M294.448,327.404c-20.515,0-37.205,16.69-37.205,37.205c0,20.516,16.69,37.205,37.205,37.205
			s37.205-16.689,37.205-37.205C331.653,344.094,314.962,327.404,294.448,327.404z"/>
		<path fill="#E97E06" d="M294.448,208.348c-4.107,0-7.44,3.333-7.44,7.44v44.646c0,4.114,3.333,7.44,7.44,7.44
			c53.337,0,96.733,43.396,96.733,96.733c0,4.115,3.333,7.441,7.44,7.441h44.646c4.114,0,7.44-3.326,7.44-7.441
			C450.708,278.45,380.615,208.348,294.448,208.348z"/>
		<path fill="#E97E06" d="M294.448,74.41c-4.107,0-7.44,3.334-7.44,7.441v59.527c0,4.107,3.333,7.441,7.44,7.441
			c118.989,0,215.789,96.808,215.789,215.789c0,4.115,3.326,7.441,7.441,7.441h59.527c4.115,0,7.441-3.326,7.441-7.441
			C584.647,204.591,454.466,74.41,294.448,74.41z"/>
	</g>
</g>
</svg>
