<svg version="1.1" id="Layer_1" xmlns="http://www.w3.org/2000/svg" xmlns:xlink="http://www.w3.org/1999/xlink" x="0px" y="0px"
	 width="476.216px" height="453px" viewBox="182.838 13.14 476.216 453" enable-background="new 182.838 13.14 476.216 453"
	 xml:space="preserve">
<path fill="#F1C40F" d="M437.966,50.115c7.302,0.931,14.621,1.702,21.913,2.67c55.808,7.44,105.291,29.513,148.96,64.839
	c16.63,13.509,31.796,28.726,45.251,45.399c6.947,8.566,6.604,15.858-1.042,23.82c-5.017,5.222-10.033,10.442-15.05,15.663
	c-6.901,7.153-13.077,6.855-19.271-1.022c-31.857-40.507-71.778-69.881-120.823-86.037c-96.491-31.735-201.596-1.349-267.263,76.875
	c-2.93,3.497-5.692,7.134-8.631,10.622c-4.977,5.906-11.292,6.315-16.742,0.874c-6.127-6.12-12.133-12.361-18.017-18.723
	c-5.655-6.13-5.906-14.083-0.577-20.603c49.176-60.096,111.383-97.979,188.369-110.667c9.58-1.581,19.272-2.492,28.917-3.72h34.006
	V50.115z"/>
<path fill="#F1C40F" d="M415.289,426.109c-2.009-0.79-4.027-1.534-6.018-2.372c-14.175-5.952-22.044-21.672-18.668-37.288
	c3.228-14.882,16.547-25.765,31.038-25.253c15.412,0.549,27.718,11.961,30.201,27.997c2.166,15.201-6.57,29.854-20.974,35.177
	c-1.442,0.512-2.791,1.153-4.242,1.73h-11.338V426.109z"/>
<path fill="#F1C40F" d="M587.558,249.822c-2.204,4.13-3.665,8.371-6.334,11.562c-4.93,5.906-10.566,11.218-15.914,16.742
	c-7.739,8.046-13.022,7.608-19.254-1.553c-18.323-26.899-42.404-46.674-72.876-58.328c-64.336-24.611-136.923-0.986-176.723,57.379
	c-0.997,1.602-2.097,3.137-3.293,4.595c-3.805,4.251-9.302,4.893-13.385,0.931c-7.097-6.911-14.026-14.036-20.603-21.393
	c-4.728-5.475-4.995-13.506-0.642-19.282c32.443-43.874,74.848-72.986,129.036-81.479c80.446-12.604,144.857,16.379,194.536,79.87
	C584.423,241.833,585.576,245.693,587.558,249.822z"/>
<path fill="#F1C40F" d="M522.328,317.917c-2.074,3.851-3.544,8.074-6.241,11.255c-5.386,6.344-11.422,12.147-17.244,18.119
	c-6,6.157-11.785,5.859-16.957-1.079c-11.161-14.882-25.299-25.514-43.539-29.606c-29.959-6.725-54.877,2.503-74.912,25.384
	c-1.655,1.86-3.004,4.055-4.65,5.915c-4.353,4.781-9.868,5.051-14.454,0.484c-6.566-6.558-13.021-13.208-19.31-20.072
	c-5.711-6.27-5.646-14.52-0.093-20.975c27.522-31.978,62.253-48.032,104.527-45.391c36.116,2.251,65.443,18.678,88.455,46.396
	C519.817,310.736,520.579,314.132,522.328,317.917z"/>
</svg>
